<svg xmlns="http://www.w3.org/2000/svg" viewBox="0 0 120.29 28"><defs><style>.cls-1{fill:#1a1a1a;}</style></defs><g id="Layer_2" data-name="Layer 2"><g id="Layer_1-2" data-name="Layer 1"><path d="M47.19,13.71a3.64,3.64,0,0,1-1.53,1.39,5.21,5.21,0,0,1-2.47.53,6.33,6.33,0,0,1-2.57-.49,4.3,4.3,0,0,1-1.81-1.4A4.08,4.08,0,0,1,38,11.59h2.87A2.15,2.15,0,0,0,41.57,13a2.1,2.1,0,0,0,1.5.55,1.77,1.77,0,0,0,1.3-.45,1.7,1.7,0,0,0,.08-2.21,2.75,2.75,0,0,0-.92-.66c-.37-.16-.88-.36-1.53-.57a14.64,14.64,0,0,1-2.07-.84,3.88,3.88,0,0,1-1.37-1.19,3.5,3.5,0,0,1-.56-2,3.35,3.35,0,0,1,1.25-2.75,5.19,5.19,0,0,1,3.33-1,5.26,5.26,0,0,1,3.41,1,3.93,3.93,0,0,1,1.45,2.76H44.53a2,2,0,0,0-.61-1.2,1.94,1.94,0,0,0-1.36-.47,1.81,1.81,0,0,0-1.21.39,1.4,1.4,0,0,0-.46,1.14,1.44,1.44,0,0,0,.35,1,2.87,2.87,0,0,0,.9.64,15.41,15.41,0,0,0,1.49.56,17.71,17.71,0,0,1,2.11.86,3.71,3.71,0,0,1,1.39,1.2,3.51,3.51,0,0,1,.58,2.11A3.63,3.63,0,0,1,47.19,13.71Z"/><path d="M53.84,10.48v5h-2.7V2h4.92a5.07,5.07,0,0,1,3.61,1.15,4.07,4.07,0,0,1,1.21,3.12,4,4,0,0,1-1.25,3.08,5.09,5.09,0,0,1-3.57,1.15Zm4.31-4.23a2,2,0,0,0-.56-1.55,2.55,2.55,0,0,0-1.82-.54H53.84V8.32h1.93C57.35,8.32,58.15,7.63,58.15,6.25Z"/><path d="M72.32,12.78H66.9l-1,2.72H63.09l5-13.37h3.08l5,13.37H73.26Zm-.73-2L69.6,5l-2,5.71Z"/><path d="M86.05,15.5l-3.16-5.27H81.7V15.5H79V2h5.16a5.08,5.08,0,0,1,3.59,1.15,3.93,3.93,0,0,1,1.23,3,3.9,3.9,0,0,1-.85,2.57,4.22,4.22,0,0,1-2.46,1.38L89,15.5ZM81.7,8.37h2.23c1.54,0,2.31-.68,2.31-2a2,2,0,0,0-.56-1.52,2.46,2.46,0,0,0-1.75-.54H81.7Z"/><path d="M102.54,3.14a6.13,6.13,0,0,1,2.2,3.55h-2.83A3.73,3.73,0,0,0,100.54,5a3.87,3.87,0,0,0-2.23-.63A3.54,3.54,0,0,0,95,6.4a5.31,5.31,0,0,0-.48,2.34A5.24,5.24,0,0,0,95,11.05a3.61,3.61,0,0,0,1.34,1.54,3.67,3.67,0,0,0,1.94.53,3.87,3.87,0,0,0,2.23-.63,3.7,3.7,0,0,0,1.37-1.72h2.83a6.13,6.13,0,0,1-2.2,3.54,7.29,7.29,0,0,1-7.61.43,5.89,5.89,0,0,1-2.3-2.44,7.68,7.68,0,0,1-.81-3.56,7.68,7.68,0,0,1,.81-3.58,6,6,0,0,1,2.29-2.45,7.31,7.31,0,0,1,7.62.43Z"/><path d="M119.41,2V15.5h-2.72V9.62h-5.78V15.5h-2.7V2h2.7V7.45h5.78V2Z"/><path d="M41.05,26.09H38.91l-.41,1.12h-.67l1.8-4.77h.71l1.79,4.77h-.68Zm-.18-.49L40,23.14l-.89,2.46Z"/><path d="M44.9,23.58a1.69,1.69,0,0,1,.86-.22v.69h-.2a1.32,1.32,0,0,0-.86.27,1.07,1.07,0,0,0-.34.9v2h-.63V23.43h.63v.76A1.39,1.39,0,0,1,44.9,23.58Z"/><path d="M50.22,23.77a1.58,1.58,0,0,1,.58,1h-.66a1,1,0,0,0-.37-.64,1.28,1.28,0,0,0-.77-.23,1.21,1.21,0,0,0-.6.15,1.12,1.12,0,0,0-.44.47,2,2,0,0,0,0,1.55,1.09,1.09,0,0,0,.44.46,1.12,1.12,0,0,0,.6.16,1.22,1.22,0,0,0,.77-.24,1,1,0,0,0,.37-.64h.66a1.6,1.6,0,0,1-.58,1,1.89,1.89,0,0,1-1.2.38,2,2,0,0,1-1-.23,1.66,1.66,0,0,1-.66-.68,2.21,2.21,0,0,1-.23-1,2.23,2.23,0,0,1,.23-1,1.73,1.73,0,0,1,.66-.68,2,2,0,0,1,1-.23A1.84,1.84,0,0,1,50.22,23.77Z"/><path d="M55.65,23.79A1.7,1.7,0,0,1,56.06,25v2.2h-.63V25.07a1.22,1.22,0,0,0-.29-.87,1,1,0,0,0-.79-.3,1.06,1.06,0,0,0-.82.33,1.37,1.37,0,0,0-.31,1v2h-.63v-5.1h.63v2.21a1.28,1.28,0,0,1,.51-.71,1.54,1.54,0,0,1,.85-.25A1.43,1.43,0,0,1,55.65,23.79Z"/><path d="M58,22a.43.43,0,0,1,.31-.11.47.47,0,0,1,.31.11.38.38,0,0,1,.11.28.41.41,0,0,1-.11.28.46.46,0,0,1-.31.1.43.43,0,0,1-.31-.1.38.38,0,0,1-.12-.28A.35.35,0,0,1,58,22Zm.62,1.39v3.78H58V23.43Z"/><path d="M62.39,26.66v.55h-.46a1.23,1.23,0,0,1-.87-.27,1.28,1.28,0,0,1-.29-.93V24h-.56v-.54h.56v-.95h.64v.95h1V24h-1V26a.71.71,0,0,0,.13.5.66.66,0,0,0,.47.13Z"/><path d="M67.58,25.45h-3a1.37,1.37,0,0,0,.37,1,1.33,1.33,0,0,0,1.61.09,1,1,0,0,0,.38-.62h.67a1.68,1.68,0,0,1-.31.71,1.72,1.72,0,0,1-.61.48,2.16,2.16,0,0,1-.86.17,2,2,0,0,1-1-.23,1.6,1.6,0,0,1-.66-.68,2.09,2.09,0,0,1-.24-1,2.12,2.12,0,0,1,.24-1,1.66,1.66,0,0,1,.66-.68,2,2,0,0,1,1-.23,2,2,0,0,1,1,.23,1.59,1.59,0,0,1,.63.63,1.81,1.81,0,0,1,.22.87A1.65,1.65,0,0,1,67.58,25.45Zm-.75-1A1,1,0,0,0,66.4,24a1.33,1.33,0,0,0-.6-.14,1.28,1.28,0,0,0-.87.32,1.31,1.31,0,0,0-.38.94H67A1.19,1.19,0,0,0,66.83,24.45Z"/><path d="M72.27,23.77a1.62,1.62,0,0,1,.58,1h-.66a1,1,0,0,0-.37-.64,1.28,1.28,0,0,0-.77-.23,1.21,1.21,0,0,0-.6.15,1.12,1.12,0,0,0-.44.47,2,2,0,0,0,0,1.55,1.09,1.09,0,0,0,.44.46,1.12,1.12,0,0,0,.6.16,1.22,1.22,0,0,0,.77-.24,1,1,0,0,0,.37-.64h.66a1.64,1.64,0,0,1-.58,1,1.89,1.89,0,0,1-1.2.38,2,2,0,0,1-1-.23,1.66,1.66,0,0,1-.66-.68,2.21,2.21,0,0,1-.23-1,2.23,2.23,0,0,1,.23-1,1.73,1.73,0,0,1,.66-.68,2,2,0,0,1,1-.23A1.84,1.84,0,0,1,72.27,23.77Z"/><path d="M76.45,26.66v.55H76a1.23,1.23,0,0,1-.87-.27,1.28,1.28,0,0,1-.28-.93V24h-.57v-.54h.57v-.95h.63v.95h1V24h-1V26a.71.71,0,0,0,.13.5.66.66,0,0,0,.47.13Z"/><path d="M81.54,23.43v3.78h-.63v-.89a1.21,1.21,0,0,1-.51.71,1.54,1.54,0,0,1-.86.24,1.4,1.4,0,0,1-1.06-.42,1.7,1.7,0,0,1-.41-1.22v-2.2h.63v2.14a1.22,1.22,0,0,0,.29.87,1,1,0,0,0,.79.31,1.06,1.06,0,0,0,.82-.33,1.39,1.39,0,0,0,.31-1v-2Z"/><path d="M84.69,23.58a1.63,1.63,0,0,1,.85-.22v.69h-.19a1.33,1.33,0,0,0-.87.27,1.07,1.07,0,0,0-.34.9v2h-.63V23.43h.63v.76A1.41,1.41,0,0,1,84.69,23.58Z"/><path d="M90.58,25.45h-3a1.37,1.37,0,0,0,.37,1,1.23,1.23,0,0,0,.85.32,1.28,1.28,0,0,0,.77-.23.93.93,0,0,0,.37-.62h.67a1.68,1.68,0,0,1-.31.71,1.63,1.63,0,0,1-.61.48,2.16,2.16,0,0,1-.86.17,2,2,0,0,1-1-.23,1.66,1.66,0,0,1-.66-.68,2.09,2.09,0,0,1-.24-1,2.12,2.12,0,0,1,.24-1,1.73,1.73,0,0,1,.66-.68,2,2,0,0,1,1-.23,2,2,0,0,1,1,.23,1.59,1.59,0,0,1,.63.63,1.71,1.71,0,0,1,.22.87A1.65,1.65,0,0,1,90.58,25.45Zm-.74-1A1,1,0,0,0,89.4,24a1.33,1.33,0,0,0-.6-.14,1.28,1.28,0,0,0-.87.32,1.31,1.31,0,0,0-.38.94H90A1.28,1.28,0,0,0,89.84,24.45Z"/><path d="M97.28,23.71a1.42,1.42,0,0,1,.47.9h-.6a.86.86,0,0,0-.28-.55.89.89,0,0,0-.64-.22.75.75,0,0,0-.52.16.55.55,0,0,0-.19.44.45.45,0,0,0,.12.33A1,1,0,0,0,96,25l.52.14a4.08,4.08,0,0,1,.68.2,1,1,0,0,1,.44.32.89.89,0,0,1,.19.59.93.93,0,0,1-.35.75,1.42,1.42,0,0,1-.93.29,1.79,1.79,0,0,1-1.1-.32A1.29,1.29,0,0,1,94.9,26h.61a.77.77,0,0,0,.3.56,1.1,1.1,0,0,0,.7.22.75.75,0,0,0,.51-.17.57.57,0,0,0,.18-.43.48.48,0,0,0-.13-.36,1.08,1.08,0,0,0-.33-.2,5.32,5.32,0,0,0-.53-.14c-.28-.07-.5-.13-.67-.19a1.1,1.1,0,0,1-.43-.31.9.9,0,0,1-.17-.57,1,1,0,0,1,.35-.77,1.47,1.47,0,0,1,1-.29A1.53,1.53,0,0,1,97.28,23.71Z"/><path d="M101.4,26.66v.55h-.47a1.24,1.24,0,0,1-.87-.27,1.28,1.28,0,0,1-.28-.93V24h-.57v-.54h.57v-.95h.63v.95h1V24h-1V26a.71.71,0,0,0,.14.5.63.63,0,0,0,.46.13Z"/><path d="M106.49,23.43v3.78h-.62v-.89a1.27,1.27,0,0,1-.52.71,1.52,1.52,0,0,1-.86.24,1.42,1.42,0,0,1-1.06-.42,1.69,1.69,0,0,1-.4-1.22v-2.2h.62v2.14a1.22,1.22,0,0,0,.29.87,1,1,0,0,0,.79.31,1.1,1.1,0,0,0,.83-.33,1.44,1.44,0,0,0,.31-1v-2Z"/><path d="M111,23.65a1.49,1.49,0,0,1,.54.74V22.11h.62v5.1h-.62v-1A1.47,1.47,0,0,1,111,27a1.51,1.51,0,0,1-.93.28,1.77,1.77,0,0,1-.9-.23,1.64,1.64,0,0,1-.62-.68,2.2,2.2,0,0,1-.22-1,2.23,2.23,0,0,1,.22-1,1.7,1.7,0,0,1,.62-.68,1.77,1.77,0,0,1,.9-.23A1.57,1.57,0,0,1,111,23.65Zm-1.68.66a1.41,1.41,0,0,0-.35,1,1.43,1.43,0,0,0,.35,1,1.2,1.2,0,0,0,.93.37,1.32,1.32,0,0,0,.66-.17,1.21,1.21,0,0,0,.46-.49,1.54,1.54,0,0,0,.17-.73,1.57,1.57,0,0,0-.17-.73,1.12,1.12,0,0,0-.46-.48,1.23,1.23,0,0,0-.66-.17A1.2,1.2,0,0,0,109.27,24.31Z"/><path d="M114.08,22a.48.48,0,0,1,.32-.11.47.47,0,0,1,.31.11.38.38,0,0,1,.11.28.41.41,0,0,1-.11.28.46.46,0,0,1-.31.1.47.47,0,0,1-.32-.1.41.41,0,0,1-.11-.28A.38.38,0,0,1,114.08,22Zm.63,1.39v3.78h-.63V23.43Z"/><path d="M119.37,23.61a1.78,1.78,0,0,1,.68.68,2.12,2.12,0,0,1,.24,1,2.09,2.09,0,0,1-.24,1,1.71,1.71,0,0,1-.68.68,2.18,2.18,0,0,1-2,0,1.65,1.65,0,0,1-.68-.68,2,2,0,0,1-.25-1,2,2,0,0,1,.25-1,1.71,1.71,0,0,1,.68-.68,2.18,2.18,0,0,1,2,0Zm-1.6.47a1.16,1.16,0,0,0-.46.47,1.54,1.54,0,0,0-.18.77,1.51,1.51,0,0,0,.18.77,1.16,1.16,0,0,0,.46.47,1.38,1.38,0,0,0,1.25,0,1.16,1.16,0,0,0,.46-.47,1.51,1.51,0,0,0,.18-.77,1.54,1.54,0,0,0-.18-.77,1.16,1.16,0,0,0-.46-.47,1.38,1.38,0,0,0-1.25,0Z"/><rect class="cls-1" y="0.08" width="8.31" height="18"/><rect class="cls-1" x="10.15" y="9.77" width="8.31" height="8.31"/><rect class="cls-1" x="20" y="9.92" width="8.31" height="18"/><rect class="cls-1" x="4.92" y="14.85" width="8.31" height="18" transform="translate(32.92 14.77) rotate(90)"/><rect class="cls-1" x="15.08" y="-4.85" width="8.31" height="18" transform="translate(23.38 -15.08) rotate(90)"/></g></g></svg>